<svg width="20" height="19" viewBox="0 0 20 19" fill="none" xmlns="http://www.w3.org/2000/svg">
<g clip-path="url(#clip0_1_2)">
<path d="M7.96027 5.95454C7.99769 5.95585 8.03511 5.95715 8.07454 5.95481C8.15792 5.95731 8.23804 5.95803 8.31939 5.96423C8.69158 5.98103 9.06275 6.03074 9.42916 6.09696C9.87619 6.17851 10.3182 6.30033 10.7461 6.4479C11.3069 6.63932 11.848 6.88217 12.3651 7.16921C12.9246 7.47939 13.458 7.83744 13.9482 8.24359C14.1812 8.43769 14.405 8.64104 14.6206 8.85915C14.8032 9.04481 14.9785 9.23605 15.1445 9.43656C15.4285 9.77794 15.6833 10.1416 15.9038 10.5296C16.0765 10.8341 16.2274 11.1554 16.3487 11.4844C16.4456 11.7571 16.5267 12.0355 16.5781 12.3216C16.6128 12.5221 16.6389 12.7227 16.6459 12.9272C16.6554 13.1426 16.6478 13.3583 16.6199 13.5725C16.6026 13.7207 16.5734 13.8672 16.5378 14.0102C16.4981 14.1605 16.4518 14.3073 16.3938 14.4525C16.3014 14.6839 16.1828 14.9011 16.0447 15.1076C15.9339 15.2717 15.8088 15.4233 15.6707 15.5676C15.5644 15.6769 15.4484 15.7808 15.3278 15.8774C15.2437 15.9462 15.1583 16.0095 15.0684 16.0655C15.0015 16.1101 14.9331 16.1525 14.8634 16.1926C14.8132 16.2225 14.7597 16.2506 14.7062 16.2788C14.3192 16.4832 13.9013 16.6278 13.4753 16.725C13.4013 16.7428 13.3267 16.7578 13.2515 16.7701C13.1581 16.786 13.0647 16.8019 12.9733 16.8141C12.8483 16.8323 12.7226 16.845 12.5966 16.8522C12.4421 16.8634 12.2897 16.871 12.136 16.8731C11.7381 16.8765 11.3406 16.8495 10.9468 16.7926C10.4629 16.7244 9.98274 16.6104 9.5154 16.4652C8.87852 16.2656 8.26075 16.0001 7.67638 15.6811C7.08551 15.3586 6.52149 14.979 6.0047 14.544C5.5803 14.1881 5.18457 13.7953 4.83126 13.3635C4.56156 13.0347 4.319 12.6873 4.10558 12.3176C3.92955 12.0112 3.77667 11.6936 3.6574 11.3609C3.55522 11.0901 3.47942 10.8099 3.42796 10.5238C3.39333 10.3232 3.36724 10.1227 3.3582 9.92181C3.3487 9.70638 3.35625 9.49069 3.37888 9.27847C3.39622 9.13025 3.42211 8.98193 3.45778 8.83891C3.49582 8.68393 3.54484 8.53185 3.60449 8.38384C3.69693 8.1524 3.81549 7.93517 3.95366 7.72867C4.06443 7.56457 4.1895 7.41307 4.32765 7.26865C4.43792 7.15204 4.55922 7.04624 4.68507 6.94768C4.76918 6.87894 4.85784 6.81743 4.94451 6.75962C5.0114 6.71502 5.07975 6.67264 5.14944 6.63255C5.1997 6.60265 5.25318 6.5745 5.30667 6.54636C5.6937 6.34194 6.11487 6.19911 6.54081 6.10193C6.61482 6.08416 6.68947 6.06911 6.76459 6.05683C6.86435 6.03869 6.96459 6.0233 7.0652 6.01069C7.1928 5.99431 7.31836 5.98163 7.44192 5.97262L7.75534 5.95736C7.80658 5.95665 7.85455 5.95418 7.90377 5.95715C7.92285 5.95324 7.94319 5.95478 7.96027 5.95454ZM7.92428 6.6803C7.86978 6.67924 7.81328 6.68184 7.75677 6.68445L7.44335 6.6997C7.31125 6.70882 7.1784 6.7271 7.04554 6.74535C6.94357 6.76137 6.8416 6.77738 6.74087 6.79886C6.6678 6.81631 6.59146 6.83199 6.52164 6.8512C6.45912 6.86485 6.39782 6.88396 6.33655 6.90308C5.97087 7.01406 5.61652 7.1742 5.29828 7.39234C5.25662 7.42213 5.2149 7.45195 5.17121 7.48543C5.11093 7.53374 5.05064 7.58207 4.99362 7.6322C4.91802 7.70081 4.84571 7.77125 4.77788 7.8489C4.67088 7.96728 4.57695 8.09282 4.49079 8.22734C4.38655 8.39504 4.30189 8.57341 4.23557 8.75699C4.19332 8.88075 4.15841 9.0069 4.13104 9.13478C4.10701 9.25688 4.09056 9.38034 4.08178 9.50447C4.05563 9.86291 4.0925 10.2223 4.17609 10.5737C4.23257 10.8196 4.3114 11.0633 4.40806 11.2977C4.52706 11.592 4.67445 11.8731 4.84167 12.1412C5.04635 12.4727 5.28136 12.7874 5.53699 13.0798C5.85289 13.4381 6.19747 13.77 6.56729 14.0723C7.03411 14.4513 7.53887 14.7842 8.06974 15.0692C8.61369 15.3614 9.18902 15.6037 9.77942 15.7874C10.2036 15.9186 10.6373 16.0168 11.076 16.0747C11.4215 16.1248 11.7704 16.1474 12.1195 16.1426C12.2785 16.1386 12.4374 16.1346 12.5972 16.1214C12.7246 16.1107 12.8515 16.0956 12.9779 16.076C13.0746 16.0619 13.17 16.0423 13.2654 16.0227L13.4847 15.9704C13.544 15.9549 13.6 15.9377 13.656 15.9205C14.0184 15.8078 14.3687 15.655 14.6817 15.4387C14.7287 15.407 14.7756 15.3753 14.8213 15.3382C14.8816 15.2898 14.9419 15.2415 14.9989 15.1914C15.0793 15.1216 15.1545 15.0461 15.2239 14.9654C15.3241 14.8518 15.4156 14.7309 15.4977 14.6036C15.6 14.4396 15.6879 14.263 15.7542 14.0794C15.7982 13.9601 15.8303 13.8391 15.856 13.7145C15.882 13.5888 15.9004 13.4616 15.9112 13.3337C15.9374 12.9753 15.9025 12.6122 15.8255 12.2643C15.769 12.0185 15.6902 11.7748 15.5935 11.5404C15.4745 11.2461 15.3271 10.9649 15.1599 10.6969C14.954 10.3599 14.7157 10.0435 14.4556 9.7438C14.1254 9.36284 13.7547 9.01718 13.3627 8.70285C12.9225 8.35267 12.4516 8.04308 11.9587 7.77401C11.465 7.50445 10.948 7.27982 10.414 7.10283C10.0632 6.98758 9.70589 6.89305 9.34396 6.81975C9.00968 6.75673 8.67067 6.71025 8.32936 6.69119C8.24273 6.68689 8.15607 6.6826 8.07269 6.6801C8.03527 6.67879 7.99259 6.67937 7.95517 6.67807C7.94663 6.67817 7.93608 6.68197 7.92428 6.6803Z" fill="black"/>
<path d="M10.0216 4.32064C10.0856 4.3198 10.1529 4.32077 10.2139 4.32545C10.3517 4.32915 10.4866 4.33834 10.6214 4.34756C11.0067 4.37907 11.3838 4.44899 11.7584 4.53901C12.0589 4.61719 12.3542 4.7139 12.6427 4.82857C12.8961 4.93109 13.1434 5.04465 13.3817 5.17475C13.6135 5.30128 13.8393 5.43879 14.0561 5.5929C14.2734 5.74733 14.4833 5.91203 14.685 6.08643C14.9261 6.29676 15.1519 6.52734 15.3589 6.7691C15.566 7.01088 15.7572 7.25831 15.9298 7.52426C16.1228 7.82275 16.2969 8.13244 16.4461 8.45706C16.5881 8.7635 16.7083 9.08665 16.8029 9.41015C16.9119 9.77723 16.9892 10.1557 17.0377 10.5327C17.0863 10.9141 17.103 11.2989 17.0877 11.6831C17.0705 12.1016 17.0176 12.5179 16.9296 12.9274C16.841 13.3226 16.7203 13.7146 16.5669 14.0887C16.4691 14.3298 16.3576 14.5651 16.233 14.7935C16.0902 15.0551 15.9311 15.3075 15.7569 15.5494C15.5675 15.8109 15.3618 16.0634 15.1363 16.298C14.8305 16.6176 14.4981 16.9083 14.1388 17.1628C13.7484 17.4433 13.3341 17.6822 12.899 17.8739C12.4513 18.073 11.986 18.2268 11.5061 18.3297C11.0104 18.4383 10.5063 18.4922 10.0035 18.4896C9.7249 18.4877 9.44573 18.4712 9.16606 18.4402C8.88313 18.4073 8.60594 18.3562 8.33153 18.2923C8.00789 18.2158 7.69066 18.1144 7.38269 17.9889C7.12281 17.8828 6.86241 17.7622 6.6143 17.6267C6.39842 17.5088 6.1887 17.38 5.98595 17.2408C5.78578 17.1029 5.58838 16.9522 5.40349 16.7941C5.17921 16.6073 4.97019 16.4002 4.77374 16.1856C4.55745 15.9531 4.36299 15.7039 4.18081 15.4399C3.98179 15.1524 3.80461 14.8483 3.64952 14.5347C3.48083 14.1994 3.34355 13.8454 3.23184 13.4911C3.11635 13.1205 3.02925 12.7367 2.97727 12.3506C2.92201 11.9628 2.90493 11.5672 2.91371 11.1785C2.92486 10.7519 2.97642 10.3274 3.06771 9.91051C3.15264 9.51484 3.27078 9.12703 3.42086 8.75121C3.52684 8.48716 3.6522 8.2265 3.7906 7.97295C3.93499 7.70838 4.09899 7.45455 4.27607 7.20782C4.44822 6.96887 4.63599 6.74157 4.83814 6.52739C5.14994 6.19684 5.49466 5.89139 5.86648 5.62938C6.24135 5.36184 6.64609 5.12496 7.06844 4.93343C7.3711 4.79818 7.68707 4.67733 8.00405 4.58567C8.31045 4.49617 8.62256 4.42754 8.93824 4.38024C9.16951 4.3427 9.4029 4.31958 9.63704 4.31103C9.71688 4.30452 9.79367 4.30353 9.87049 4.30254C9.90565 4.30025 9.94405 4.29975 9.97619 4.30298C9.99275 4.3192 10.0056 4.31902 10.0216 4.32064ZM9.98296 5.04353L9.86776 5.04502C9.79745 5.04957 9.72691 5.04684 9.65663 5.0514C9.45206 5.06134 9.24798 5.08587 9.04719 5.11217C8.7382 5.15813 8.43324 5.22774 8.13558 5.32278C7.87583 5.40275 7.61658 5.49733 7.36763 5.61183C6.98946 5.78453 6.62537 5.99355 6.28815 6.23869C5.95548 6.47699 5.64648 6.74672 5.36542 7.04416C5.1833 7.23805 5.01425 7.43908 4.8585 7.65453C4.69976 7.87548 4.55407 8.10357 4.42468 8.34056C4.30105 8.56711 4.19058 8.8006 4.09381 9.03986C3.95825 9.37361 3.85203 9.72341 3.77498 10.082C3.69514 10.4533 3.65098 10.837 3.63869 11.2165C3.62862 11.5687 3.64742 11.9211 3.69491 12.2702C3.74231 12.6179 3.81861 12.9611 3.92302 13.2961C4.02392 13.6159 4.14714 13.9335 4.29872 14.238C4.43999 14.5226 4.60662 14.7996 4.78879 15.0636C4.9469 15.2926 5.12148 15.5098 5.31115 15.7135C5.49075 15.9046 5.67665 16.0919 5.87784 16.2589C6.21499 16.5431 6.57991 16.7927 6.96706 17.0037C7.2021 17.132 7.4462 17.2438 7.693 17.3428C7.95262 17.4416 8.21828 17.5294 8.48644 17.597C8.72546 17.656 8.9705 17.7039 9.21478 17.7299C9.47536 17.7649 9.73844 17.7797 10.0073 17.7762C10.4619 17.774 10.915 17.728 11.3567 17.6329C11.7857 17.538 12.2068 17.403 12.6071 17.2209C12.998 17.048 13.3747 16.8316 13.7215 16.5845C14.0426 16.3527 14.3421 16.0924 14.6164 15.8067C14.8077 15.6036 14.9861 15.3933 15.1478 15.1669C15.3128 14.9422 15.4646 14.7031 15.5967 14.4533C15.708 14.2493 15.8093 14.0328 15.8977 13.8164C16.0363 13.4771 16.1458 13.1291 16.2231 12.7778C16.3032 12.4138 16.3509 12.0392 16.3664 11.6614C16.38 11.3183 16.3644 10.9664 16.3205 10.6277C16.2766 10.2889 16.2071 9.95053 16.109 9.61795C16.0186 9.31216 15.9054 9.01361 15.7702 8.72483C15.6352 8.43651 15.4781 8.15763 15.3022 7.88991C15.1535 7.66563 14.9889 7.44702 14.812 7.24318C14.6186 7.02312 14.4126 6.81053 14.1913 6.61819C14.0105 6.46232 13.8215 6.31618 13.6252 6.18038C13.4355 6.0483 13.2389 5.92661 13.036 5.81585C12.798 5.68584 12.5511 5.57261 12.2973 5.47699C12.0635 5.38515 11.8207 5.30982 11.5784 5.24914C11.252 5.16394 10.9171 5.10991 10.5797 5.07598C10.4512 5.06301 10.3229 5.05739 10.1946 5.05176C10.1369 5.04884 10.0791 5.04593 10.0216 5.05033C10.0086 5.04319 9.99577 5.04338 9.98296 5.04353Z" fill="black"/>
<path d="M12.4843 4.99475C12.5083 4.9958 12.5369 4.99509 12.561 4.99611C12.6163 4.99798 12.6743 5.00139 12.7304 5.00801C12.8754 5.02323 13.0183 5.05393 13.1568 5.09959C13.3116 5.15042 13.4602 5.21887 13.5994 5.30359C13.698 5.36478 13.791 5.43566 13.8776 5.51147C13.9397 5.56875 13.9999 5.6293 14.0582 5.69307C14.1 5.74291 14.1417 5.79275 14.1789 5.84428C14.2066 5.88178 14.2324 5.92245 14.2583 5.96315C14.4092 6.19626 14.5166 6.45583 14.5935 6.7193C14.6051 6.76034 14.6166 6.80138 14.6255 6.84088C14.6379 6.88666 14.6476 6.9309 14.6581 6.97991C14.6709 7.04314 14.6829 7.10162 14.6931 7.16334C14.7065 7.24406 14.7179 7.32796 14.7294 7.41189C14.7429 7.52277 14.7493 7.63383 14.7538 7.74806C14.7593 7.89727 14.7621 8.04495 14.7578 8.19277C14.7508 8.38198 14.7366 8.57134 14.7172 8.75769C14.6872 9.01095 14.6494 9.25966 14.5999 9.51024C14.5416 9.79353 14.4723 10.0744 14.3921 10.3523C14.3039 10.6578 14.2005 10.9589 14.0874 11.2586C13.9554 11.6033 13.8082 11.9435 13.6487 12.2809C13.4865 12.6168 13.3138 12.9465 13.1252 13.2671C12.9355 13.5956 12.7299 13.915 12.5157 14.2251C12.3089 14.5222 12.0915 14.8133 11.8601 15.092C11.6626 15.3302 11.4573 15.5638 11.2406 15.7866C11.0403 15.993 10.834 16.1917 10.6163 16.3795C10.4659 16.5118 10.3076 16.6394 10.1459 16.7608C9.98421 16.8822 9.81909 16.9973 9.64788 17.1046C9.49841 17.1986 9.34816 17.288 9.19103 17.3648C9.05643 17.4331 8.9192 17.4999 8.77775 17.5556C8.55339 17.6451 8.32219 17.722 8.08548 17.7658C7.88635 17.8054 7.67962 17.8278 7.47531 17.8215C7.36282 17.821 7.25064 17.8077 7.14031 17.7913C7.03185 17.7716 6.92262 17.7472 6.81629 17.7116C6.66209 17.6612 6.51642 17.59 6.3827 17.5042C6.28146 17.4414 6.19032 17.3674 6.10103 17.29C6.03897 17.2327 5.97874 17.1722 5.92226 17.1052C5.88185 17.0604 5.84447 17.013 5.81037 16.9633C5.78529 16.9274 5.76022 16.8914 5.7378 16.857C5.59223 16.6269 5.48372 16.3753 5.40675 16.1119C5.39521 16.0708 5.38365 16.0298 5.37472 15.9903C5.36162 15.9398 5.3485 15.8893 5.33988 15.837C5.3236 15.7675 5.31186 15.6963 5.30012 15.6251C5.28866 15.5412 5.2772 15.4572 5.26835 15.3749C5.25483 15.264 5.25033 15.1497 5.24395 15.0387C5.23848 14.8895 5.24012 14.7401 5.24442 14.5923C5.25145 14.4031 5.26561 14.2137 5.28694 14.0242C5.31689 13.7709 5.3566 13.5189 5.40873 13.2699C5.46599 12.9937 5.53302 12.7189 5.61247 12.447C5.70152 12.1462 5.80115 11.8516 5.91057 11.5583C6.03593 11.2313 6.17188 10.9104 6.32104 10.597C6.48393 10.2539 6.66054 9.91747 6.85043 9.58852C7.04341 9.25418 7.24958 8.92765 7.46846 8.60967C7.6652 8.32386 7.87701 8.04245 8.09566 7.77358C8.28856 7.53751 8.49007 7.30861 8.69979 7.08735C8.90379 6.87442 9.11385 6.66931 9.33712 6.47182C9.48563 6.34282 9.63489 6.21855 9.79209 6.09887C9.94481 5.98089 10.1009 5.86918 10.2632 5.76528C10.4036 5.67458 10.5449 5.58862 10.6922 5.5105C10.8305 5.43574 10.9741 5.36403 11.1193 5.30182C11.3103 5.21984 11.5066 5.15099 11.707 5.09574C11.8812 5.0503 12.0623 5.01744 12.2439 5.00202C12.2913 4.99931 12.3405 4.99337 12.3906 4.9922L12.4549 4.99069C12.47 4.99509 12.4771 4.99491 12.4843 4.99475ZM12.4631 5.72122C12.4176 5.7207 12.3728 5.72494 12.3299 5.72596C12.1904 5.73559 12.0533 5.7595 11.9204 5.79442C11.7345 5.8417 11.5562 5.90628 11.3803 5.98508C11.2576 6.03883 11.1384 6.09882 11.0245 6.16189C10.8905 6.23508 10.7599 6.31451 10.6333 6.3999C10.491 6.4938 10.354 6.59077 10.2185 6.69722C10.0767 6.80859 9.9356 6.92471 9.79982 7.04387C9.61207 7.21034 9.43042 7.3846 9.25931 7.56498C9.06539 7.76653 8.88022 7.97745 8.70031 8.19137C8.50391 8.42821 8.31691 8.67269 8.13975 8.92424C7.94193 9.2057 7.75424 9.49413 7.57703 9.789C7.40438 10.0758 7.24494 10.3703 7.09607 10.6709C6.9472 10.9714 6.80812 11.2734 6.68227 11.5829C6.57529 11.8476 6.47626 12.1168 6.38963 12.3889C6.3089 12.6386 6.23873 12.8944 6.17571 13.1501C6.11829 13.3961 6.06986 13.6387 6.03463 13.8889C6.00695 14.0834 5.9864 14.2777 5.97565 14.4733C5.965 14.6257 5.96149 14.7784 5.96513 14.9311C5.96778 15.0486 5.97229 15.1628 5.98395 15.2769C5.99169 15.3673 6.00473 15.4607 6.01963 15.5509C6.03134 15.6221 6.04499 15.6901 6.06124 15.7596C6.07514 15.8149 6.08905 15.8702 6.10483 15.9222C6.11637 15.9632 6.13058 16.0058 6.14399 16.0436C6.15584 16.0719 6.16582 16.1035 6.17766 16.1318C6.18688 16.1586 6.19795 16.1821 6.20902 16.2057C6.28193 16.3723 6.38005 16.5321 6.50282 16.6674C6.52366 16.6923 6.54376 16.7125 6.56647 16.7342C6.5979 16.7652 6.63118 16.793 6.66445 16.8208C6.71627 16.8593 6.76804 16.8978 6.82541 16.9266C6.90207 16.9709 6.9843 17.0055 7.06761 17.0321C7.1988 17.0735 7.33847 17.094 7.47768 17.0971C7.63647 17.1028 7.79584 17.0832 7.95099 17.0525C8.04343 17.0328 8.13053 17.0101 8.21951 16.9842C8.32651 16.9515 8.43272 16.9141 8.5355 16.8703C8.66037 16.8183 8.78241 16.7597 8.90111 16.6949C9.03943 16.6201 9.17244 16.5423 9.30207 16.4583C9.43853 16.3691 9.57227 16.2759 9.70308 16.1787C9.85899 16.0616 10.0102 15.9382 10.1562 15.809C10.3485 15.6408 10.532 15.4633 10.7121 15.2796C10.9023 15.0845 11.0838 14.88 11.2573 14.671C11.4529 14.436 11.6397 14.1918 11.8205 13.9397C12.0262 13.6504 12.2233 13.3519 12.4045 13.0442C12.5771 12.7574 12.7366 12.4629 12.8881 12.1638C13.0396 11.8648 13.176 11.5614 13.3019 11.2518C13.4126 10.9807 13.5108 10.7068 13.6012 10.4282C13.6848 10.1673 13.7606 9.9018 13.8194 9.63513C13.8749 9.39236 13.9226 9.145 13.9586 8.8995C13.9852 8.71303 14.0039 8.52195 14.0154 8.33105C14.0261 8.1783 14.0269 8.02419 14.0233 7.87178C14.0187 7.75585 14.0115 7.64003 14.0018 7.52441C13.9941 7.43405 13.9792 7.34385 13.9643 7.25364C13.9528 7.18363 13.9389 7.11402 13.9227 7.04493C13.9088 6.98968 13.8949 6.93439 13.8791 6.88234C13.8674 6.84146 13.8543 6.80097 13.84 6.76094C13.8281 6.73264 13.8181 6.7011 13.8063 6.6728C13.7294 6.48239 13.6247 6.2974 13.4872 6.14497C13.4664 6.12007 13.441 6.09684 13.4156 6.07362C13.3842 6.04258 13.3509 6.01477 13.3176 5.98695C13.2652 5.94811 13.2106 5.91228 13.154 5.87964C13.0747 5.83384 12.9906 5.80249 12.9047 5.77434C12.8169 5.74939 12.728 5.73241 12.6354 5.72192C12.6015 5.71952 12.5676 5.71716 12.5364 5.71632C12.5195 5.71512 12.498 5.71562 12.4811 5.71445C12.4819 5.71919 12.4747 5.71937 12.4631 5.72122Z" fill="black"/>
<path d="M13.0057 6.43324C13.0873 6.43329 13.1739 6.43446 13.2572 6.43746C13.4811 6.44587 13.7054 6.46977 13.9283 6.50628C14.1332 6.54136 14.3368 6.58899 14.5326 6.65291C14.8057 6.73911 15.0714 6.85709 15.3118 7.01323L15.2354 7.04888C15.4163 7.18707 15.4163 7.18707 15.5973 7.32526C15.7812 7.38727 15.8665 7.47565 15.9373 7.56851C16.0501 7.7118 16.1485 7.86739 16.2259 8.03116C16.2841 8.15416 16.3319 8.28177 16.3689 8.41269C16.3939 8.50055 16.4156 8.59029 16.4292 8.68075C16.4422 8.74793 16.4488 8.81887 16.4569 8.88498C16.4614 8.93743 16.4642 8.98695 16.467 9.03646C16.4801 9.37893 16.4328 9.72092 16.3411 10.0531C16.3259 10.1012 16.3157 10.1504 16.3004 10.1985C16.2807 10.261 16.261 10.3235 16.2381 10.3879C16.209 10.4715 16.1751 10.554 16.1411 10.6366C16.0959 10.746 16.0462 10.8534 15.9921 10.9586C15.9282 11.086 15.861 11.2152 15.7873 11.3404C15.69 11.5066 15.5877 11.664 15.4771 11.8223C15.3539 11.9957 15.2273 12.1631 15.094 12.3266C14.9573 12.4919 14.8152 12.6526 14.668 12.8086C14.5056 12.981 14.338 13.1446 14.1656 13.3071C13.9598 13.497 13.7468 13.679 13.5271 13.8527C13.2884 14.0417 13.0413 14.2236 12.7873 14.3938C12.5062 14.5837 12.2182 14.7618 11.9251 14.931C11.6137 15.1068 11.2957 15.2707 10.9718 15.4224C10.6795 15.5557 10.3789 15.6821 10.0778 15.793C9.78642 15.8983 9.49318 15.9929 9.19633 16.0738C8.91282 16.1504 8.6262 16.2148 8.33722 16.267C8.08679 16.3093 7.83298 16.3457 7.58198 16.3648C7.36038 16.3826 7.13365 16.3916 6.91145 16.3861C6.64686 16.3816 6.38187 16.3615 6.12127 16.3193C5.89021 16.2835 5.662 16.2305 5.43985 16.1581C5.16831 16.0671 4.90585 15.9473 4.66537 15.7911L4.56085 15.7217C4.4645 15.6515 4.37284 15.5746 4.28274 15.4929C4.19926 15.4152 4.12374 15.329 4.04971 15.2381C3.93862 15.0977 3.84191 14.9451 3.76455 14.7813C3.70752 14.6602 3.66083 14.5346 3.62497 14.4056C3.6 14.3178 3.57828 14.2281 3.56469 14.1376C3.55487 14.0685 3.54505 13.9995 3.53696 13.9334C3.53245 13.8809 3.52964 13.8314 3.5268 13.7819C3.51375 13.4394 3.56109 13.0974 3.65278 12.7652C3.66796 12.7172 3.67822 12.668 3.6934 12.6199C3.71312 12.5574 3.73285 12.4948 3.75582 12.4305C3.78483 12.3468 3.81879 12.2643 3.85274 12.1818C3.89597 12.0781 3.94414 11.9756 3.99232 11.8731C4.05453 11.7428 4.12335 11.6165 4.1971 11.4913C4.29115 11.3269 4.39674 11.1676 4.50403 11.0113C4.61454 10.8531 4.7317 10.6989 4.85054 10.5477C4.99324 10.3709 5.1411 10.203 5.29708 10.0343C5.46102 9.85703 5.63328 9.68678 5.8122 9.52054C6.0087 9.34024 6.20863 9.1658 6.4169 8.99839C6.64281 8.817 6.87502 8.64358 7.11308 8.47845C7.39733 8.28282 7.68923 8.09854 7.9881 7.92606C8.26831 7.76427 8.55538 7.61428 8.84429 7.475C9.15104 7.32935 9.4629 7.19257 9.78004 7.07242C10.0583 6.9668 10.3417 6.87001 10.6255 6.78876C10.893 6.70908 11.1641 6.64302 11.4339 6.58953C11.6451 6.54623 11.8614 6.5118 12.073 6.48404C12.2651 6.45967 12.4606 6.44121 12.6579 6.43342C12.7541 6.429 12.8521 6.42754 12.95 6.42605C12.9714 6.43334 12.9894 6.43478 13.0057 6.43324ZM12.9773 7.15759C12.9005 7.15864 12.8238 7.15968 12.7488 7.16364C12.5645 7.17171 12.3755 7.18647 12.1915 7.21006C11.9913 7.23519 11.7881 7.26996 11.5865 7.30766C11.333 7.35961 11.0847 7.42042 10.835 7.49377C10.5561 7.57611 10.2792 7.66915 10.009 7.77399C9.76311 7.86877 9.51909 7.97426 9.27846 8.08566C9.01207 8.21193 8.74589 8.34595 8.48971 8.4899C8.03428 8.74494 7.59603 9.02949 7.17776 9.34175C6.80086 9.62621 6.4408 9.93241 6.10252 10.2615C5.95782 10.404 5.81811 10.5516 5.68366 10.7039C5.55649 10.8481 5.43272 10.9982 5.3139 11.1494C5.1851 11.3146 5.06494 11.4864 4.95389 11.664C4.86895 11.7996 4.78573 11.9381 4.71235 12.0788C4.65454 12.1869 4.60332 12.2991 4.55212 12.4112C4.51494 12.4956 4.48117 12.5859 4.45062 12.6743C4.42496 12.7473 4.40168 12.8211 4.38081 12.8956L4.33581 13.0631C4.32386 13.1093 4.3168 13.1567 4.30487 13.2029L4.28777 13.3072C4.25428 13.5467 4.24865 13.7899 4.28868 14.0303C4.29454 14.0702 4.3036 14.1082 4.31266 14.1463C4.32703 14.2009 4.3431 14.2585 4.3624 14.3142C4.39039 14.3924 4.41989 14.4658 4.46075 14.5366C4.51456 14.6372 4.57807 14.7323 4.6504 14.8205C4.70586 14.8868 4.76776 14.9494 4.83289 15.0101C4.8946 15.0649 4.96275 15.116 5.02923 15.1642C5.12709 15.2296 5.22974 15.2883 5.33538 15.3374C5.46094 15.3987 5.59104 15.4455 5.72265 15.4875C5.88873 15.5371 6.06109 15.5752 6.23155 15.6027C6.4446 15.637 6.66053 15.6539 6.87778 15.6583C7.08688 15.6634 7.29734 15.656 7.50758 15.6408C7.73241 15.6211 7.95708 15.5937 8.17986 15.5555C8.45302 15.5079 8.72258 15.4467 8.99025 15.3747C9.26863 15.3002 9.54332 15.2125 9.81337 15.1119C10.0788 15.0137 10.3408 14.9096 10.5993 14.7919C10.8787 14.6659 11.1546 14.5263 11.4253 14.3779C11.8717 14.132 12.3028 13.8595 12.7168 13.5575C12.9288 13.4037 13.1346 13.2416 13.3338 13.0715C13.5058 12.9251 13.6731 12.7734 13.8356 12.6166C13.9867 12.4703 14.1329 12.3191 14.2738 12.163C14.4083 12.0144 14.5375 11.8611 14.6612 11.7034C14.7904 11.5377 14.9121 11.3663 15.0261 11.1899C15.1175 11.0506 15.2023 10.9071 15.2804 10.7599C15.3397 10.647 15.3974 10.5311 15.4469 10.416C15.4856 10.3268 15.5225 10.2346 15.5546 10.1414C15.5803 10.0684 15.6035 9.99466 15.6244 9.92017L15.6694 9.75261C15.6814 9.70636 15.6884 9.65905 15.7004 9.61282L15.7175 9.50853C15.7542 9.26712 15.7564 9.01805 15.7147 8.7747C15.7088 8.73481 15.6997 8.69679 15.6907 8.65875C15.6763 8.60411 15.6602 8.54651 15.6409 8.49079C15.6112 8.40962 15.5768 8.33512 15.5375 8.2595C15.4828 8.15737 15.4135 8.0597 15.3363 7.97056C15.2759 7.90317 15.2123 7.83763 15.144 7.77878C15.079 7.72581 15.0108 7.6747 14.9412 7.6284C14.8384 7.56189 14.7308 7.50208 14.6202 7.45185C14.4914 7.39247 14.3581 7.34753 14.2233 7.30738C14.0705 7.26584 13.9161 7.2291 13.7604 7.20491C13.5798 7.17805 13.3979 7.16097 13.2155 7.15374C13.1502 7.15215 13.0881 7.14869 13.0244 7.15004C13.0093 7.15544 12.9933 7.158 12.9773 7.15759ZM9.95508 -0.000610352C9.97081 -0.000610352 9.97474 -0.000610352 9.99047 0.00347792C10.018 0.0075662 10.0494 0.0157688 10.077 0.0280597C10.1281 0.0485531 10.1713 0.0813374 10.2067 0.11821C10.2421 0.159171 10.2696 0.204246 10.2853 0.257524C10.2932 0.282106 10.2971 0.302573 10.3011 0.327155V2.62167C10.3011 2.63396 10.3011 2.64625 10.2971 2.65854C10.2893 2.6995 10.2775 2.74049 10.2578 2.77736C10.2421 2.81014 10.2185 2.83881 10.1949 2.8634C10.1556 2.90027 10.1124 2.92896 10.0612 2.94946C10.0101 2.96584 9.95508 2.97404 9.90396 2.96993C9.86857 2.96584 9.83319 2.95763 9.80173 2.94534C9.76241 2.92894 9.72702 2.90847 9.69559 2.8798C9.66018 2.84699 9.63268 2.81014 9.61302 2.76507C9.59729 2.73228 9.58549 2.6995 9.58156 2.66263C9.58156 2.65034 9.57763 2.63805 9.57763 2.62575V0.368142V0.331269C9.58153 0.302573 9.58549 0.273903 9.59729 0.245233C9.61695 0.196043 9.64447 0.14688 9.68379 0.110007C9.72311 0.0731348 9.76634 0.0444648 9.81746 0.0239714C9.84498 0.0157688 9.87644 0.0075662 9.90396 0.00347792H9.93935C9.94326 -0.000610352 9.94721 -0.000610352 9.95508 -0.000610352ZM15.5393 1.50018C15.5448 1.49859 15.5516 1.50252 15.557 1.50093C15.5693 1.50328 15.5781 1.50367 15.5904 1.50601C15.6238 1.51109 15.6565 1.52525 15.6837 1.54096C15.7335 1.56494 15.775 1.60311 15.809 1.64642C15.841 1.69326 15.8654 1.74524 15.8756 1.79841C15.8803 1.82953 15.883 1.86419 15.8769 1.89848C15.8727 1.92921 15.8665 1.96351 15.8515 1.99741C15.8454 2.00806 15.8447 2.01712 15.8385 2.02775L15.8303 2.04194L14.7097 3.98291L14.7015 3.9971C14.6954 4.00775 14.6913 4.01483 14.6817 4.02353C14.6599 4.05347 14.6292 4.08308 14.5958 4.10165C14.559 4.12682 14.5179 4.14478 14.4744 4.15456C14.4328 4.16368 14.3865 4.16532 14.3408 4.15789C14.2918 4.14849 14.2434 4.13003 14.1992 4.10446C14.1569 4.07537 14.1222 4.04113 14.0916 3.99978C14.0726 3.96989 14.0569 3.94192 14.0488 3.90885C14.0372 3.87377 14.0298 3.83164 14.0326 3.79539C14.0326 3.7481 14.0429 3.70673 14.0586 3.66376C14.0648 3.65311 14.0655 3.64405 14.0716 3.6334L14.0798 3.61921L15.2004 1.67826L15.2168 1.64988C15.2304 1.6341 15.2461 1.61478 15.2598 1.599C15.283 1.57452 15.311 1.55757 15.3389 1.54059C15.3669 1.52361 15.3996 1.51413 15.4323 1.50463C15.4487 1.49989 15.463 1.49869 15.4828 1.49591C15.4971 1.49471 15.5005 1.49669 15.5148 1.49546C15.5305 1.49979 15.5359 1.49822 15.5393 1.50018ZM4.36617 1.49848C4.38049 1.49968 4.38388 1.49773 4.40026 1.50247C4.41458 1.50367 4.43432 1.50645 4.4507 1.51119C4.4834 1.5207 4.51273 1.53215 4.54275 1.55267C4.57069 1.56965 4.5973 1.59215 4.6205 1.6166C4.63209 1.62884 4.64368 1.64108 4.65191 1.65525L4.66829 1.68363L5.78889 3.6246C5.79098 3.62814 5.79504 3.63525 5.79709 3.63879C5.80324 3.64944 5.80733 3.65652 5.81009 3.66915C5.82582 3.71212 5.83608 3.75349 5.83613 3.80076C5.8355 3.83898 5.83144 3.87914 5.81991 3.91421C5.80447 3.96275 5.7795 4.00772 5.74647 4.0465C5.71382 4.08428 5.67158 4.11342 5.62528 4.1354C5.59599 4.14758 5.56122 4.15818 5.52787 4.16326C5.48222 4.17068 5.43928 4.16709 5.39428 4.15995C5.35084 4.15016 5.30966 4.13219 5.27294 4.10701C5.24182 4.08381 5.21303 4.05764 5.18695 4.02889C5.18081 4.01824 5.17331 4.01311 5.16716 4.00246L5.15899 3.98827L4.03836 2.04733L4.03018 2.03314C4.02403 2.02249 4.01992 2.01538 4.01716 2.00277C4.00216 1.96887 3.9919 1.92752 3.99252 1.88929C3.99198 1.85633 3.99422 1.82337 3.99922 1.79078C4.01276 1.73566 4.03724 1.68368 4.07127 1.64038C4.1053 1.59707 4.15225 1.56049 4.20199 1.5365C4.23129 1.52434 4.26602 1.51374 4.29938 1.50864C4.31167 1.5063 4.32052 1.50593 4.33279 1.50359C4.33826 1.50515 4.34503 1.50124 4.3505 1.50281C4.35185 1.49729 4.35732 1.4989 4.36617 1.49848ZM0.386198 5.55598C0.400781 5.55533 0.404322 5.55739 0.416925 5.56012C0.435049 5.5615 0.45122 5.56629 0.467365 5.57106C0.48351 5.57587 0.49968 5.58067 0.513898 5.58884L0.542282 5.60525L2.48322 6.72585L2.49741 6.73405C2.50806 6.7402 2.51517 6.74429 2.52385 6.75384C2.55895 6.78319 2.58853 6.81389 2.61222 6.8548C2.63946 6.89777 2.65371 6.94685 2.66243 6.99729C2.66761 7.0457 2.66529 7.09885 2.65235 7.14585C2.64373 7.17718 2.62959 7.20988 2.6103 7.23506C2.59075 7.2692 2.56403 7.29869 2.532 7.32152C2.49619 7.35078 2.45721 7.36914 2.41469 7.38544C2.37216 7.39869 2.32751 7.40373 2.28311 7.40029C2.24456 7.39574 2.20655 7.38747 2.1696 7.3756C2.15895 7.36946 2.14989 7.36878 2.13923 7.36263L2.12504 7.35443L0.184102 6.23383C0.180561 6.23174 0.173452 6.22768 0.16991 6.22562C0.15926 6.21948 0.152151 6.21539 0.14348 6.20583C0.113534 6.18396 0.0839264 6.15328 0.0653599 6.11988C0.041299 6.08782 0.028253 6.05303 0.017186 6.01486C0.00768139 5.98215 0.00369728 5.94806 0.00328064 5.91603C0.00518156 5.87174 0.012629 5.82609 0.0307007 5.78659C0.045231 5.74503 0.0723647 5.70623 0.101087 5.67287C0.124988 5.64887 0.151526 5.62764 0.180196 5.6096C0.22311 5.58442 0.271154 5.56676 0.322374 5.56002C0.333389 5.55728 0.342451 5.55798 0.357034 5.55731C0.362554 5.55595 0.366095 5.55801 0.375157 5.55871C0.373595 5.55325 0.379089 5.55189 0.386198 5.55598ZM19.649 5.55377C19.6545 5.55512 19.66 5.55647 19.6636 5.55442C19.6746 5.55715 19.6837 5.55645 19.6982 5.5571C19.7349 5.56319 19.7755 5.57611 19.8089 5.59309C19.8499 5.61486 19.8837 5.64071 19.9144 5.67746C19.9412 5.7074 19.9608 5.74149 19.9769 5.77758C19.9891 5.80687 19.9997 5.84161 19.9993 5.87364C20.0044 5.90702 20.0004 5.94109 19.9964 5.9752C19.9908 6.0147 19.9778 6.04949 19.9592 6.0829C19.9375 6.12722 19.9028 6.16545 19.8641 6.19682C19.8535 6.20297 19.8484 6.21047 19.8377 6.21661L19.8235 6.22482L17.8826 7.34542L17.8684 7.35362C17.8577 7.35977 17.8507 7.36386 17.838 7.36659C17.8041 7.38164 17.7628 7.3919 17.7245 7.39128C17.6801 7.39472 17.6355 7.38968 17.593 7.37643C17.5502 7.36262 17.5104 7.34094 17.4756 7.31251C17.4491 7.29143 17.4254 7.26694 17.4052 7.23967C17.3761 7.19749 17.3541 7.15114 17.3447 7.1021C17.3353 7.05304 17.3349 7.00328 17.3472 6.95081C17.3548 6.91467 17.3694 6.87446 17.3899 6.84444C17.4136 6.80353 17.4432 6.77283 17.4783 6.74348C17.4889 6.73734 17.494 6.72984 17.5047 6.72369L17.5189 6.71549L19.4598 5.59488L19.4882 5.57848C19.5151 5.56754 19.5383 5.55869 19.5671 5.55114C19.5829 5.5467 19.5995 5.54484 19.6159 5.54562C19.6214 5.54697 19.625 5.54494 19.6341 5.54424C19.638 5.55106 19.6435 5.55241 19.649 5.55377Z" fill="black"/>
</g>
<defs>
<clipPath id="clip0_1_2">
<rect width="20" height="18.504" fill="white"/>
</clipPath>
</defs>
</svg>
