<svg width="18" height="18" viewBox="0 0 18 18" fill="none" xmlns="http://www.w3.org/2000/svg">
<path d="M9.24023 2.61973C10.5812 2.57911 11.8845 3.06863 12.8672 3.98203C13.8497 4.89539 14.4329 6.15934 14.4902 7.49961C15.4436 7.61709 16.3233 8.07434 16.9678 8.78672C17.6121 9.4991 17.9784 10.4202 18 11.3805C17.974 12.4434 17.5357 13.4546 16.7783 14.2008C16.0209 14.9469 15.0035 15.3703 13.9404 15.3805C13.8675 15.3909 13.7927 15.3909 13.7197 15.3805H12.1104V11.5504H14.1104C14.2957 11.5503 14.4733 11.4762 14.6045 11.3453C14.7357 11.2141 14.8095 11.0358 14.8096 10.8502V10.65C15.0503 10.5957 15.2655 10.4607 15.4199 10.2682C15.5742 10.0757 15.6593 9.83706 15.6602 9.59043C15.6603 9.44392 15.6305 9.29854 15.5732 9.16367C15.516 9.02875 15.4326 8.90605 15.3271 8.8043C15.2217 8.70255 15.0959 8.62326 14.959 8.5709C14.8223 8.51869 14.6765 8.49428 14.5303 8.49961C14.2637 8.50057 14.0064 8.59938 13.8076 8.77695C13.6088 8.95461 13.482 9.19963 13.4512 9.46445C13.4205 9.72915 13.488 9.99602 13.6406 10.2145C13.7933 10.4329 14.0211 10.5879 14.2803 10.65V10.8502C14.2802 10.8777 14.2742 10.9049 14.2637 10.9303C14.2531 10.9557 14.2382 10.9792 14.2188 10.9986C14.1993 11.0181 14.1758 11.033 14.1504 11.0436C14.125 11.0541 14.0978 11.0601 14.0703 11.0602H12.0703V7.53965C12.0703 7.44918 12.0522 7.35956 12.0176 7.27598C11.9829 7.19237 11.9321 7.11636 11.8682 7.05234C11.8042 6.98841 11.728 6.9376 11.6445 6.90293C11.5608 6.86825 11.4705 6.85019 11.3799 6.85019H10.3496C10.297 6.60874 10.1634 6.39258 9.9707 6.23789C9.77778 6.08319 9.53732 5.99852 9.29004 5.99961C9.08515 5.99943 8.8846 6.05788 8.71094 6.1666C8.5373 6.27531 8.39793 6.43049 8.30859 6.61484C8.21926 6.79921 8.1828 7.00494 8.20508 7.20859C8.22737 7.41227 8.30746 7.60552 8.43457 7.76621C8.56157 7.92669 8.73101 8.04821 8.92383 8.1168C9.11679 8.18534 9.3255 8.19831 9.52539 8.15391C9.72526 8.10944 9.90895 8.00964 10.0547 7.86582C10.2003 7.72197 10.3026 7.53966 10.3496 7.34043H11.4199C11.473 7.34043 11.524 7.36152 11.5615 7.39902C11.5988 7.43642 11.62 7.48686 11.6201 7.53965V15.3805H6.11035V11.0797C6.11027 10.8969 6.03734 10.7217 5.9082 10.5924C5.7788 10.463 5.60292 10.3902 5.41992 10.3902H4.54004C4.47987 10.1294 4.32599 9.89928 4.10742 9.74473C3.8888 9.59017 3.62051 9.52206 3.35449 9.55234C3.08869 9.58264 2.84327 9.70929 2.66504 9.90879C2.48675 10.1085 2.3877 10.3676 2.3877 10.6354C2.38778 10.903 2.48683 11.1613 2.66504 11.3609C2.8433 11.5605 3.08859 11.6881 3.35449 11.7184C3.62051 11.7486 3.8888 11.6796 4.10742 11.525C4.3258 11.3705 4.47981 11.1411 4.54004 10.8805H5.41992C5.47297 10.8805 5.52402 10.9016 5.56152 10.9391C5.59877 10.9765 5.62004 11.0269 5.62012 11.0797V15.3805H5.07031C3.77388 15.4264 2.51194 14.9558 1.56152 14.0729C0.611119 13.1899 0.0494892 11.9658 0 10.6695C0.0229803 9.51354 0.462118 8.40436 1.2373 7.54648C2.01258 6.68854 3.07185 6.13916 4.21973 5.99961C4.57776 5.05978 5.19788 4.24417 6.00391 3.64805L6 3.65976V8.65976C6 8.84276 6.07275 9.01865 6.20215 9.14805C6.33154 9.27738 6.50748 9.35019 6.69043 9.35019H8.24023C8.2677 9.35023 8.29493 9.35532 8.32031 9.36582C8.34579 9.37637 8.36917 9.39222 8.38867 9.41172C8.40808 9.43118 8.42308 9.45469 8.43359 9.48008C8.44408 9.50549 8.4502 9.53266 8.4502 9.56016V10.5602C8.20857 10.6128 7.9926 10.7471 7.83789 10.94C7.68326 11.1329 7.59858 11.3725 7.59961 11.6197C7.59943 11.8246 7.65788 12.0261 7.7666 12.1998C7.87531 12.3732 8.03065 12.5129 8.21484 12.6021C8.39916 12.6914 8.60501 12.727 8.80859 12.7047C9.01219 12.6824 9.20556 12.6032 9.36621 12.4762C9.52684 12.3491 9.6482 12.1789 9.7168 11.9859C9.78536 11.7929 9.79837 11.5843 9.75391 11.3844C9.70943 11.1844 9.6097 11.0008 9.46582 10.8551C9.3578 10.7457 9.22812 10.6605 9.08594 10.6051L8.94043 10.5602V9.60996C8.94042 9.42437 8.86656 9.2461 8.73535 9.11484C8.60413 8.98362 8.4258 8.90983 8.24023 8.90976H6.69043C6.63739 8.90976 6.58633 8.88868 6.54883 8.85117C6.51132 8.81366 6.49023 8.76261 6.49023 8.70957V3.32969C7.32251 2.84622 8.27353 2.59876 9.24023 2.61973ZM8.56543 11.0426C8.6894 11.018 8.81777 11.0304 8.93457 11.0787C9.05134 11.1271 9.15137 11.209 9.22168 11.3141C9.29192 11.4192 9.32999 11.5431 9.33008 11.6695C9.33008 11.7535 9.31336 11.8371 9.28125 11.9146C9.24909 11.9923 9.20201 12.0632 9.14258 12.1227C9.08316 12.1821 9.0122 12.2292 8.93457 12.2613C8.85714 12.2934 8.77422 12.3101 8.69043 12.3102C8.56385 12.3102 8.43923 12.2721 8.33398 12.2018C8.22897 12.1315 8.147 12.0314 8.09863 11.9146C8.05032 11.7979 8.03791 11.6695 8.0625 11.5455C8.08719 11.4214 8.14782 11.3069 8.2373 11.2174C8.32681 11.1279 8.44128 11.0673 8.56543 11.0426ZM3.34473 10.0025C3.46885 9.97785 3.59792 9.99026 3.71484 10.0387C3.83165 10.0871 3.93164 10.169 4.00195 10.274C4.07227 10.3793 4.11035 10.5039 4.11035 10.6305C4.11022 10.8 4.04269 10.9627 3.92285 11.0826C3.80283 11.2026 3.63946 11.2701 3.46973 11.2701C3.34324 11.2701 3.21943 11.232 3.11426 11.1617C3.00917 11.0914 2.9273 10.9914 2.87891 10.8746C2.83056 10.7578 2.81816 10.6295 2.84277 10.5055C2.86747 10.3813 2.92808 10.2668 3.01758 10.1773C3.10696 10.088 3.22081 10.0273 3.34473 10.0025ZM14.3916 8.96348C14.516 8.93799 14.6452 8.94954 14.7627 8.99766C14.8802 9.04577 14.981 9.12763 15.0518 9.23301C15.1225 9.33846 15.1601 9.46343 15.1602 9.59043C15.1601 9.75809 15.0941 9.91908 14.9766 10.0387C14.8588 10.1583 14.6982 10.2274 14.5303 10.2301C14.4033 10.2321 14.2784 10.1957 14.1719 10.1266C14.0655 10.0575 13.9816 9.95892 13.9316 9.84238C13.8817 9.72563 13.8671 9.59609 13.8906 9.47129C13.9142 9.34661 13.9745 9.23168 14.0635 9.14121C14.1526 9.0507 14.2672 8.98899 14.3916 8.96348ZM9.16504 6.4625C9.28919 6.4378 9.41821 6.45019 9.53516 6.49863C9.65193 6.54704 9.75199 6.62891 9.82227 6.73398C9.89259 6.83923 9.92969 6.96385 9.92969 7.09043C9.92963 7.17427 9.91293 7.2571 9.88086 7.33457C9.8487 7.41222 9.80162 7.48315 9.74219 7.54258C9.68285 7.60186 9.61263 7.64912 9.53516 7.68125C9.45752 7.71341 9.37407 7.73007 9.29004 7.73008C9.16346 7.73008 9.03982 7.692 8.93457 7.62168C8.82938 7.55136 8.74666 7.45147 8.69824 7.33457C8.65 7.21785 8.63753 7.08931 8.66211 6.96543C8.6868 6.84128 8.74839 6.72681 8.83789 6.6373C8.92732 6.54799 9.04108 6.48719 9.16504 6.4625Z" fill="black"/>
</svg>
